# xmcd CD database file
#
# Track frame offsets:
#	150
#	18122
#	34215
#	49542
#	68022
#	85400
#	101110
#
# Disc length: 1415 seconds
#
# Revision: 0
# Processed by: cddbd v1.5.2PL0 Copyright (c) Steve Scherf et al.
# Submitted via: CDex 1.70beta2
#
DISCID=50058507
DTITLE=Johnny Roth - Still Nor Talkin
DYEAR=2003
DGENRE=Jazz
TTITLE0=Still Not Talkin
TTITLE1=Natchez Trace
TTITLE2=Jodi's Revenge
TTITLE3=Riverslide
TTITLE4=Angel Blue
TTITLE5=Demoman
TTITLE6=Waterboy
EXTD=YEAR: 2003
EXTT0=
EXTT1=
EXTT2=
EXTT3=
EXTT4=
EXTT5=
EXTT6=
PLAYORDER=
